<svg width="512" height="512" viewBox="0 0 512 512" style="color:#3A76F5" xmlns="http://www.w3.org/2000/svg" class="h-full w-full"><rect width="512" height="512" x="0" y="0" rx="30" fill="transparent" stroke="transparent" stroke-width="0" stroke-opacity="100%" paint-order="stroke"></rect><svg width="256px" height="256px" viewBox="0 0 32 32" fill="#3A76F5" x="128" y="128" role="img" style="display:inline-block;vertical-align:middle" xmlns="http://www.w3.org/2000/svg"><g fill="#3A76F5"><path fill="currentColor" d="M27.71 4.29a1 1 0 0 0-1.05-.23l-22 8a1 1 0 0 0 0 1.87l8.59 3.43L19.59 11L21 12.41l-6.37 6.37l3.44 8.59A1 1 0 0 0 19 28a1 1 0 0 0 .92-.66l8-22a1 1 0 0 0-.21-1.05Z"/></g></svg></svg>